<svg xmlns="http://www.w3.org/2000/svg" xmlns:xlink="http://www.w3.org/1999/xlink" width="1200" zoomAndPan="magnify" viewBox="0 0 900 599.999999" height="800" preserveAspectRatio="xMidYMid meet" version="1.0"><defs><g/><clipPath id="df84b7a96d"><path d="M 98.117188 225.777344 L 232.253906 225.777344 L 232.253906 543.390625 L 98.117188 543.390625 Z M 98.117188 225.777344 " clip-rule="nonzero"/></clipPath></defs><g clip-path="url(#df84b7a96d)"><path fill="#7447e1" d="M 98.117188 225.777344 L 232.253906 225.777344 L 232.253906 543.300781 L 98.117188 543.300781 Z M 98.117188 225.777344 " fill-opacity="1" fill-rule="nonzero"/></g><g fill="#ffffff" fill-opacity="1"><g transform="translate(192.951444, 532.924491)"><g><path d="M -36.390625 -92.5 L -36.765625 -33.21875 C -31.023438 -33.175781 -26.757812 -35.003906 -23.96875 -38.703125 C -21.1875 -42.410156 -19.785156 -46.441406 -19.765625 -50.796875 C -19.734375 -55.359375 -20.320312 -58.96875 -21.53125 -61.625 C -22.738281 -64.289062 -25.132812 -67.34375 -28.71875 -70.78125 L -18.40625 -91.109375 C -4.21875 -82.515625 2.8125 -68.335938 2.6875 -48.578125 C 2.613281 -36.253906 -1.671875 -25.710938 -10.171875 -16.953125 C -18.679688 -8.191406 -28.882812 -3.847656 -40.78125 -3.921875 C -52.675781 -3.992188 -62.84375 -8.460938 -71.28125 -17.328125 C -79.726562 -26.191406 -83.914062 -36.785156 -83.84375 -49.109375 C -83.757812 -62.078125 -79.945312 -72.601562 -72.40625 -80.6875 C -64.863281 -88.769531 -54.132812 -92.765625 -40.21875 -92.671875 C -38.300781 -92.660156 -37.023438 -92.601562 -36.390625 -92.5 Z M -52.375 -34.109375 L -52.171875 -65.1875 C -56.429688 -64.5625 -59.710938 -62.898438 -62.015625 -60.203125 C -64.316406 -57.515625 -65.476562 -54.046875 -65.5 -49.796875 C -65.53125 -45.128906 -64.332031 -41.40625 -61.90625 -38.625 C -59.476562 -35.84375 -56.300781 -34.335938 -52.375 -34.109375 Z M -52.375 -34.109375 "/></g></g></g><g fill="#ffffff" fill-opacity="1"><g transform="translate(193.549462, 436.844429)"><g><path d="M 0.0625 -9.5625 L -81.6875 -10.0625 L -81.515625 -38.265625 L -72.90625 -38.21875 L -72.90625 -38.53125 C -80.1875 -45.90625 -83.804688 -53.734375 -83.765625 -62.015625 C -83.734375 -66.054688 -83.171875 -70.066406 -82.078125 -74.046875 C -80.992188 -78.023438 -79.320312 -81.835938 -77.0625 -85.484375 C -74.8125 -89.140625 -71.632812 -92.097656 -67.53125 -94.359375 C -63.425781 -96.617188 -58.664062 -97.726562 -53.25 -97.6875 L 0.609375 -97.359375 L 0.421875 -69.15625 L -45.78125 -69.4375 C -50.03125 -69.46875 -53.753906 -68.140625 -56.953125 -65.453125 C -60.160156 -62.765625 -61.773438 -59.242188 -61.796875 -54.890625 C -61.828125 -50.640625 -60.207031 -46.773438 -56.9375 -43.296875 C -53.664062 -39.828125 -50.007812 -38.078125 -45.96875 -38.046875 L 0.234375 -37.765625 Z M 0.0625 -9.5625 "/></g></g></g><g fill="#7447e1" fill-opacity="1"><g transform="translate(244.247642, 183.228075)"><g><path d="M 35.015625 -72.296875 L 35.015625 0 L 8.46875 0 L 8.46875 -116.5 L 35.015625 -116.5 L 81.34375 -44.203125 L 81.625 -44.203125 L 81.625 -116.5 L 108.171875 -116.5 L 108.171875 0 L 81.625 0 L 35.296875 -72.296875 Z M 35.015625 -72.296875 "/></g></g></g><g fill="#7447e1" fill-opacity="1"><g transform="translate(360.897505, 183.228075)"><g><path d="M 10.875 -112.828125 C 13.789062 -115.753906 17.269531 -117.21875 21.3125 -117.21875 C 25.363281 -117.21875 28.847656 -115.753906 31.765625 -112.828125 C 34.691406 -109.910156 36.15625 -106.425781 36.15625 -102.375 C 36.15625 -98.332031 34.691406 -94.851562 31.765625 -91.9375 C 28.847656 -89.019531 25.363281 -87.5625 21.3125 -87.5625 C 17.269531 -87.5625 13.789062 -89.019531 10.875 -91.9375 C 7.957031 -94.851562 6.5 -98.332031 6.5 -102.375 C 6.5 -106.425781 7.957031 -109.910156 10.875 -112.828125 Z M 8.46875 -72.4375 L 8.46875 0 L 33.46875 0 L 33.46875 -72.4375 Z M 8.46875 -72.4375 "/></g></g></g><g fill="#7447e1" fill-opacity="1"><g transform="translate(403.546726, 183.228075)"><g><path d="M 45.328125 -90.65625 C 41.566406 -92.445312 37.988281 -93.34375 34.59375 -93.34375 C 33.28125 -93.34375 32.082031 -92.800781 31 -91.71875 C 29.914062 -90.632812 29.1875 -89.53125 28.8125 -88.40625 L 28.25 -86.84375 L 13.984375 -86.84375 C 14.078125 -87.507812 14.238281 -88.382812 14.46875 -89.46875 C 14.707031 -90.550781 15.320312 -92.476562 16.3125 -95.25 C 17.300781 -98.03125 18.429688 -100.5 19.703125 -102.65625 C 20.972656 -104.820312 22.804688 -106.773438 25.203125 -108.515625 C 27.609375 -110.265625 30.269531 -111.140625 33.1875 -111.140625 C 34.789062 -111.140625 36.816406 -110.832031 39.265625 -110.21875 C 41.710938 -109.601562 43.78125 -108.96875 45.46875 -108.3125 L 47.875 -107.328125 C 51.632812 -105.535156 55.210938 -104.640625 58.609375 -104.640625 C 59.921875 -104.640625 61.117188 -105.179688 62.203125 -106.265625 C 63.285156 -107.347656 64.015625 -108.453125 64.390625 -109.578125 L 64.953125 -111.140625 L 79.21875 -111.140625 C 79.125 -110.484375 78.957031 -109.613281 78.71875 -108.53125 C 78.488281 -107.445312 77.878906 -105.515625 76.890625 -102.734375 C 75.898438 -99.960938 74.769531 -97.492188 73.5 -95.328125 C 72.226562 -93.160156 70.390625 -91.203125 67.984375 -89.453125 C 65.585938 -87.710938 62.929688 -86.84375 60.015625 -86.84375 C 58.421875 -86.84375 56.398438 -87.148438 53.953125 -87.765625 C 51.503906 -88.378906 49.429688 -89.015625 47.734375 -89.671875 Z M 33.46875 0 L 33.46875 -40.953125 C 33.46875 -44.523438 34.992188 -47.769531 38.046875 -50.6875 C 41.109375 -53.613281 44.523438 -55.078125 48.296875 -55.078125 C 52.160156 -55.078125 55.289062 -53.664062 57.6875 -50.84375 C 60.082031 -48.019531 61.28125 -44.722656 61.28125 -40.953125 L 61.28125 0 L 86.28125 0 L 86.28125 -47.734375 C 86.28125 -52.535156 85.269531 -56.75 83.25 -60.375 C 81.226562 -64 78.59375 -66.796875 75.34375 -68.765625 C 72.09375 -70.742188 68.703125 -72.203125 65.171875 -73.140625 C 61.640625 -74.085938 58.085938 -74.5625 54.515625 -74.5625 C 47.171875 -74.5625 40.25 -71.3125 33.75 -64.8125 L 33.46875 -64.8125 L 33.46875 -72.4375 L 8.46875 -72.4375 L 8.46875 0 Z M 33.46875 0 "/></g></g></g><g fill="#7447e1" fill-opacity="1"><g transform="translate(496.894863, 183.228075)"><g><path d="M 13.40625 -8.953125 C 6.632812 -16.347656 3.25 -25.410156 3.25 -36.140625 C 3.25 -46.878906 6.632812 -55.96875 13.40625 -63.40625 C 20.1875 -70.84375 28.804688 -74.5625 39.265625 -74.5625 C 48.859375 -74.5625 56.765625 -71.550781 62.984375 -65.53125 L 62.984375 -72.4375 L 87.984375 -72.4375 L 87.984375 0 L 63.265625 0 L 63.265625 -8.1875 L 62.984375 -8.1875 C 56.765625 -1.3125 48.859375 2.125 39.265625 2.125 C 28.804688 2.125 20.1875 -1.566406 13.40625 -8.953125 Z M 34.671875 -48.4375 C 31.421875 -45.238281 29.796875 -41.144531 29.796875 -36.15625 C 29.796875 -31.164062 31.347656 -27.09375 34.453125 -23.9375 C 37.566406 -20.78125 41.664062 -19.203125 46.75 -19.203125 C 51.644531 -19.203125 55.664062 -20.800781 58.8125 -24 C 61.96875 -27.207031 63.546875 -31.257812 63.546875 -36.15625 C 63.546875 -41.144531 61.921875 -45.238281 58.671875 -48.4375 C 55.421875 -51.632812 51.445312 -53.234375 46.75 -53.234375 C 41.945312 -53.234375 37.921875 -51.632812 34.671875 -48.4375 Z M 34.671875 -48.4375 "/></g></g></g><g fill="#7447e1" fill-opacity="1"><g transform="translate(593.349876, 183.228075)"><g><path d="M 39.96875 -74.5625 C 44.101562 -74.5625 48.195312 -74.085938 52.25 -73.140625 C 56.300781 -72.203125 59.3125 -71.265625 61.28125 -70.328125 L 64.25 -68.921875 L 56.0625 -52.53125 C 50.414062 -55.539062 45.050781 -57.046875 39.96875 -57.046875 C 37.144531 -57.046875 35.144531 -56.738281 33.96875 -56.125 C 32.789062 -55.519531 32.203125 -54.367188 32.203125 -52.671875 C 32.203125 -52.296875 32.25 -51.921875 32.34375 -51.546875 C 32.4375 -51.171875 32.625 -50.816406 32.90625 -50.484375 C 33.1875 -50.148438 33.441406 -49.863281 33.671875 -49.625 C 33.910156 -49.394531 34.3125 -49.140625 34.875 -48.859375 C 35.445312 -48.578125 35.894531 -48.363281 36.21875 -48.21875 C 36.550781 -48.082031 37.09375 -47.875 37.84375 -47.59375 C 38.59375 -47.3125 39.15625 -47.097656 39.53125 -46.953125 C 39.914062 -46.816406 40.554688 -46.601562 41.453125 -46.3125 C 42.347656 -46.03125 43.03125 -45.84375 43.5 -45.75 C 46.414062 -44.90625 48.957031 -43.960938 51.125 -42.921875 C 53.289062 -41.890625 55.570312 -40.476562 57.96875 -38.6875 C 60.375 -36.90625 62.234375 -34.644531 63.546875 -31.90625 C 64.867188 -29.175781 65.53125 -26.070312 65.53125 -22.59375 C 65.53125 -6.113281 54.085938 2.125 31.203125 2.125 C 26.023438 2.125 21.109375 1.320312 16.453125 -0.28125 C 11.796875 -1.882812 8.429688 -3.484375 6.359375 -5.078125 L 3.25 -7.625 L 13.421875 -24.71875 C 14.171875 -24.050781 15.15625 -23.269531 16.375 -22.375 C 17.601562 -21.488281 19.816406 -20.265625 23.015625 -18.703125 C 26.210938 -17.148438 28.988281 -16.375 31.34375 -16.375 C 36.53125 -16.375 39.125 -18.117188 39.125 -21.609375 C 39.125 -23.203125 38.460938 -24.445312 37.140625 -25.34375 C 35.816406 -26.238281 33.578125 -27.25 30.421875 -28.375 C 27.273438 -29.507812 24.804688 -30.546875 23.015625 -31.484375 C 18.492188 -33.835938 14.914062 -36.5 12.28125 -39.46875 C 9.644531 -42.4375 8.328125 -46.367188 8.328125 -51.265625 C 8.328125 -58.609375 11.175781 -64.328125 16.875 -68.421875 C 22.570312 -72.515625 30.269531 -74.5625 39.96875 -74.5625 Z M 39.96875 -74.5625 "/></g></g></g><g fill="#7447e1" fill-opacity="1"><g transform="translate(662.831395, 183.228075)"><g/></g></g><g fill="#7447e1" fill-opacity="1"><g transform="translate(701.385165, 183.228075)"><g><path d="M 63.40625 -72.4375 L 92.21875 -72.4375 L 35.296875 36.71875 L 6.5 36.71875 L 31.484375 -11.296875 L -2.828125 -72.4375 L 25.984375 -72.4375 L 46.171875 -35.296875 Z M 63.40625 -72.4375 "/></g></g></g><g fill="#ffffff" fill-opacity="1"><g transform="translate(790.786681, 183.228075)"><g/></g></g><g fill="#ffffff" fill-opacity="1"><g transform="translate(244.247642, 345.978068)"><g><path d="M 104.78125 0 L 99.28125 -69.0625 L 98.578125 -69.0625 L 74.703125 -0.703125 L 58.890625 -0.703125 L 35.015625 -69.0625 L 34.3125 -69.0625 L 28.8125 0 L 2.265625 0 L 12.703125 -116.5 L 40.953125 -116.5 L 66.796875 -49.28125 L 92.640625 -116.5 L 120.890625 -116.5 L 131.328125 0 Z M 104.78125 0 "/></g></g></g><g fill="#ffffff" fill-opacity="1"><g transform="translate(377.844214, 345.978068)"><g><path d="M 32.0625 -72.4375 L 32.0625 -37.984375 C 32.0625 -30.828125 33.140625 -25.742188 35.296875 -22.734375 C 37.460938 -19.722656 41.132812 -18.21875 46.3125 -18.21875 C 51.5 -18.21875 55.171875 -19.722656 57.328125 -22.734375 C 59.492188 -25.742188 60.578125 -30.828125 60.578125 -37.984375 L 60.578125 -72.4375 L 85.578125 -72.4375 L 85.578125 -31.921875 C 85.578125 -19.867188 82.445312 -11.179688 76.1875 -5.859375 C 69.925781 -0.535156 59.96875 2.125 46.3125 2.125 C 32.664062 2.125 22.710938 -0.535156 16.453125 -5.859375 C 10.191406 -11.179688 7.0625 -19.867188 7.0625 -31.921875 L 7.0625 -72.4375 Z M 32.0625 -72.4375 "/></g></g></g><g fill="#ffffff" fill-opacity="1"><g transform="translate(470.48625, 345.978068)"><g><path d="M 10.875 -112.828125 C 13.789062 -115.753906 17.269531 -117.21875 21.3125 -117.21875 C 25.363281 -117.21875 28.847656 -115.753906 31.765625 -112.828125 C 34.691406 -109.910156 36.15625 -106.425781 36.15625 -102.375 C 36.15625 -98.332031 34.691406 -94.851562 31.765625 -91.9375 C 28.847656 -89.019531 25.363281 -87.5625 21.3125 -87.5625 C 17.269531 -87.5625 13.789062 -89.019531 10.875 -91.9375 C 7.957031 -94.851562 6.5 -98.332031 6.5 -102.375 C 6.5 -106.425781 7.957031 -109.910156 10.875 -112.828125 Z M 8.46875 -72.4375 L 8.46875 6.359375 C 8.46875 12.941406 6.160156 16.234375 1.546875 16.234375 C 0.609375 16.234375 -0.375 16.066406 -1.40625 15.734375 C -2.445312 15.410156 -3.296875 15.0625 -3.953125 14.6875 L -4.796875 14.125 L -12.5625 34.3125 C -12.375 34.40625 -11.757812 34.6875 -10.71875 35.15625 C -9.6875 35.632812 -8.910156 35.988281 -8.390625 36.21875 C -7.878906 36.457031 -7.007812 36.765625 -5.78125 37.140625 C -4.5625 37.515625 -3.382812 37.796875 -2.25 37.984375 C -1.125 38.171875 0.28125 38.359375 1.96875 38.546875 C 3.664062 38.734375 5.457031 38.828125 7.34375 38.828125 C 12.050781 38.828125 16.191406 38.003906 19.765625 36.359375 C 23.347656 34.710938 26.078125 32.5 27.953125 29.71875 C 29.835938 26.945312 31.226562 24.03125 32.125 20.96875 C 33.019531 17.90625 33.46875 14.632812 33.46875 11.15625 L 33.46875 -72.4375 Z M 8.46875 -72.4375 "/></g></g></g><g fill="#ffffff" fill-opacity="1"><g transform="translate(512.429348, 345.978068)"><g><path d="M 81.765625 -32.765625 L 29.234375 -32.765625 C 29.234375 -27.679688 30.878906 -23.914062 34.171875 -21.46875 C 37.472656 -19.019531 41.050781 -17.796875 44.90625 -17.796875 C 48.957031 -17.796875 52.160156 -18.335938 54.515625 -19.421875 C 56.867188 -20.503906 59.550781 -22.644531 62.5625 -25.84375 L 80.640625 -16.8125 C 73.109375 -4.1875 60.585938 2.125 43.078125 2.125 C 32.148438 2.125 22.78125 -1.613281 14.96875 -9.09375 C 7.15625 -16.582031 3.25 -25.597656 3.25 -36.140625 C 3.25 -46.691406 7.15625 -55.734375 14.96875 -63.265625 C 22.78125 -70.796875 32.148438 -74.5625 43.078125 -74.5625 C 54.554688 -74.5625 63.894531 -71.242188 71.09375 -64.609375 C 78.300781 -57.972656 81.90625 -48.488281 81.90625 -36.15625 C 81.90625 -34.457031 81.859375 -33.328125 81.765625 -32.765625 Z M 29.9375 -46.609375 L 57.46875 -46.609375 C 56.90625 -50.367188 55.421875 -53.257812 53.015625 -55.28125 C 50.617188 -57.3125 47.539062 -58.328125 43.78125 -58.328125 C 39.632812 -58.328125 36.335938 -57.242188 33.890625 -55.078125 C 31.441406 -52.910156 30.125 -50.085938 29.9375 -46.609375 Z M 29.9375 -46.609375 "/></g></g></g><g fill="#ffffff" fill-opacity="1"><g transform="translate(597.586571, 345.978068)"><g><path d="M 8.46875 0 L 8.46875 -72.4375 L 33.46875 -72.4375 L 33.46875 -62 L 33.75 -62 C 33.9375 -62.375 34.238281 -62.84375 34.65625 -63.40625 C 35.082031 -63.96875 36.003906 -64.953125 37.421875 -66.359375 C 38.835938 -67.773438 40.34375 -69.046875 41.9375 -70.171875 C 43.539062 -71.304688 45.613281 -72.320312 48.15625 -73.21875 C 50.695312 -74.113281 53.285156 -74.5625 55.921875 -74.5625 C 58.648438 -74.5625 61.332031 -74.179688 63.96875 -73.421875 C 66.601562 -72.671875 68.535156 -71.921875 69.765625 -71.171875 L 71.734375 -70.046875 L 61.28125 -48.859375 C 58.175781 -51.492188 53.847656 -52.8125 48.296875 -52.8125 C 45.285156 -52.8125 42.695312 -52.148438 40.53125 -50.828125 C 38.363281 -49.515625 36.832031 -47.914062 35.9375 -46.03125 C 35.039062 -44.15625 34.40625 -42.554688 34.03125 -41.234375 C 33.65625 -39.921875 33.46875 -38.882812 33.46875 -38.125 L 33.46875 0 Z M 8.46875 0 "/></g></g></g><g fill="#ffffff" fill-opacity="1"><g transform="translate(667.91541, 345.978068)"><g><path d="M 81.765625 -32.765625 L 29.234375 -32.765625 C 29.234375 -27.679688 30.878906 -23.914062 34.171875 -21.46875 C 37.472656 -19.019531 41.050781 -17.796875 44.90625 -17.796875 C 48.957031 -17.796875 52.160156 -18.335938 54.515625 -19.421875 C 56.867188 -20.503906 59.550781 -22.644531 62.5625 -25.84375 L 80.640625 -16.8125 C 73.109375 -4.1875 60.585938 2.125 43.078125 2.125 C 32.148438 2.125 22.78125 -1.613281 14.96875 -9.09375 C 7.15625 -16.582031 3.25 -25.597656 3.25 -36.140625 C 3.25 -46.691406 7.15625 -55.734375 14.96875 -63.265625 C 22.78125 -70.796875 32.148438 -74.5625 43.078125 -74.5625 C 54.554688 -74.5625 63.894531 -71.242188 71.09375 -64.609375 C 78.300781 -57.972656 81.90625 -48.488281 81.90625 -36.15625 C 81.90625 -34.457031 81.859375 -33.328125 81.765625 -32.765625 Z M 29.9375 -46.609375 L 57.46875 -46.609375 C 56.90625 -50.367188 55.421875 -53.257812 53.015625 -55.28125 C 50.617188 -57.3125 47.539062 -58.328125 43.78125 -58.328125 C 39.632812 -58.328125 36.335938 -57.242188 33.890625 -55.078125 C 31.441406 -52.910156 30.125 -50.085938 29.9375 -46.609375 Z M 29.9375 -46.609375 "/></g></g></g><g fill="#ffffff" fill-opacity="1"><g transform="translate(753.072634, 345.978068)"><g><path d="M 39.96875 -74.5625 C 44.101562 -74.5625 48.195312 -74.085938 52.25 -73.140625 C 56.300781 -72.203125 59.3125 -71.265625 61.28125 -70.328125 L 64.25 -68.921875 L 56.0625 -52.53125 C 50.414062 -55.539062 45.050781 -57.046875 39.96875 -57.046875 C 37.144531 -57.046875 35.144531 -56.738281 33.96875 -56.125 C 32.789062 -55.519531 32.203125 -54.367188 32.203125 -52.671875 C 32.203125 -52.296875 32.25 -51.921875 32.34375 -51.546875 C 32.4375 -51.171875 32.625 -50.816406 32.90625 -50.484375 C 33.1875 -50.148438 33.441406 -49.863281 33.671875 -49.625 C 33.910156 -49.394531 34.3125 -49.140625 34.875 -48.859375 C 35.445312 -48.578125 35.894531 -48.363281 36.21875 -48.21875 C 36.550781 -48.082031 37.09375 -47.875 37.84375 -47.59375 C 38.59375 -47.3125 39.15625 -47.097656 39.53125 -46.953125 C 39.914062 -46.816406 40.554688 -46.601562 41.453125 -46.3125 C 42.347656 -46.03125 43.03125 -45.84375 43.5 -45.75 C 46.414062 -44.90625 48.957031 -43.960938 51.125 -42.921875 C 53.289062 -41.890625 55.570312 -40.476562 57.96875 -38.6875 C 60.375 -36.90625 62.234375 -34.644531 63.546875 -31.90625 C 64.867188 -29.175781 65.53125 -26.070312 65.53125 -22.59375 C 65.53125 -6.113281 54.085938 2.125 31.203125 2.125 C 26.023438 2.125 21.109375 1.320312 16.453125 -0.28125 C 11.796875 -1.882812 8.429688 -3.484375 6.359375 -5.078125 L 3.25 -7.625 L 13.421875 -24.71875 C 14.171875 -24.050781 15.15625 -23.269531 16.375 -22.375 C 17.601562 -21.488281 19.816406 -20.265625 23.015625 -18.703125 C 26.210938 -17.148438 28.988281 -16.375 31.34375 -16.375 C 36.53125 -16.375 39.125 -18.117188 39.125 -21.609375 C 39.125 -23.203125 38.460938 -24.445312 37.140625 -25.34375 C 35.816406 -26.238281 33.578125 -27.25 30.421875 -28.375 C 27.273438 -29.507812 24.804688 -30.546875 23.015625 -31.484375 C 18.492188 -33.835938 14.914062 -36.5 12.28125 -39.46875 C 9.644531 -42.4375 8.328125 -46.367188 8.328125 -51.265625 C 8.328125 -58.609375 11.175781 -64.328125 16.875 -68.421875 C 22.570312 -72.515625 30.269531 -74.5625 39.96875 -74.5625 Z M 39.96875 -74.5625 "/></g></g></g><g fill="#7447e1" fill-opacity="1"><g transform="translate(249.953884, 534.945552)"><g><path d="M -3.078125 -105.125 L -4.171875 -131.390625 L 88.15625 -135.234375 L 89.25 -108.96875 L 58.0625 -107.671875 L 62.421875 -2.59375 L 32.46875 -1.34375 L 28.109375 -106.421875 Z M -3.078125 -105.125 "/></g></g></g><g fill="#7447e1" fill-opacity="1"><g transform="translate(343.856596, 531.051064)"><g><path d="M 82.359375 -132.984375 L 82.84375 -106.703125 L 37.609375 -105.875 L 38.078125 -79.734375 L 81.40625 -80.515625 L 81.890625 -54.234375 L 38.5625 -53.453125 L 39.03125 -27.015625 L 84.265625 -27.84375 L 84.75 -1.546875 L 9.5625 -0.171875 L 7.171875 -131.609375 Z M 82.359375 -132.984375 "/></g></g></g><g fill="#7447e1" fill-opacity="1"><g transform="translate(435.144683, 529.192807)"><g><path d="M 79.734375 -26.4375 C 84.296875 -26.40625 88.734375 -27.0625 93.046875 -28.40625 C 97.359375 -29.75 100.53125 -31.046875 102.5625 -32.296875 L 105.609375 -34.359375 L 118.15625 -8.75 C 117.726562 -8.425781 117.140625 -8.003906 116.390625 -7.484375 C 115.640625 -6.972656 113.90625 -6.007812 111.1875 -4.59375 C 108.46875 -3.175781 105.5625 -1.945312 102.46875 -0.90625 C 99.382812 0.125 95.34375 1.039062 90.34375 1.84375 C 85.34375 2.65625 80.1875 3.039062 74.875 3 C 62.65625 2.90625 51.097656 -0.1875 40.203125 -6.28125 C 29.316406 -12.375 20.570312 -20.707031 13.96875 -31.28125 C 7.363281 -41.851562 4.109375 -53.242188 4.203125 -65.453125 C 4.285156 -74.703125 6.320312 -83.554688 10.3125 -92.015625 C 14.3125 -100.484375 19.601562 -107.71875 26.1875 -113.71875 C 32.78125 -119.726562 40.441406 -124.5 49.171875 -128.03125 C 57.910156 -131.570312 66.847656 -133.304688 75.984375 -133.234375 C 84.484375 -133.160156 92.3125 -132.085938 99.46875 -130.015625 C 106.625 -127.941406 111.675781 -125.878906 114.625 -123.828125 L 119.078125 -120.765625 L 106.109375 -95.390625 C 105.367188 -96.023438 104.257812 -96.800781 102.78125 -97.71875 C 101.300781 -98.632812 98.335938 -99.851562 93.890625 -101.375 C 89.441406 -102.90625 84.9375 -103.6875 80.375 -103.71875 C 73.144531 -103.78125 66.648438 -102.664062 60.890625 -100.375 C 55.140625 -98.082031 50.570312 -95.035156 47.1875 -91.234375 C 43.8125 -87.441406 41.226562 -83.347656 39.4375 -78.953125 C 37.65625 -74.554688 36.75 -70.078125 36.71875 -65.515625 C 36.632812 -55.523438 40.300781 -46.539062 47.71875 -38.5625 C 55.144531 -30.59375 65.816406 -26.550781 79.734375 -26.4375 Z M 79.734375 -26.4375 "/></g></g></g><g fill="#7447e1" fill-opacity="1"><g transform="translate(553.861415, 530.13646)"><g><path d="M 41.5 -51.203125 L 39.484375 1.515625 L 9.5625 0.359375 L 14.578125 -131 L 44.5 -129.84375 L 42.5 -77.453125 L 84.859375 -75.84375 L 86.859375 -128.234375 L 116.796875 -127.09375 L 111.78125 4.265625 L 81.84375 3.125 L 83.859375 -49.59375 Z M 41.5 -51.203125 "/></g></g></g></svg>