<svg xmlns="http://www.w3.org/2000/svg" xmlns:xlink="http://www.w3.org/1999/xlink" width="1200" zoomAndPan="magnify" viewBox="0 0 900 899.99999" height="1200" preserveAspectRatio="xMidYMid meet" version="1.0"><defs><g/><clipPath id="fedb08552a"><path d="M 98.078125 351.53125 L 232.230469 351.53125 L 232.230469 669.179688 L 98.078125 669.179688 Z M 98.078125 351.53125 " clip-rule="nonzero"/></clipPath></defs><g clip-path="url(#fedb08552a)"><path fill="#e1c1ff" d="M 98.078125 351.53125 L 232.230469 351.53125 L 232.230469 669.089844 L 98.078125 669.089844 Z M 98.078125 351.53125 " fill-opacity="1" fill-rule="nonzero"/></g><g fill="#000000" fill-opacity="1"><g transform="translate(192.521019, 658.717458)"><g><path d="M -36.390625 -92.5 L -36.765625 -33.21875 C -31.023438 -33.175781 -26.757812 -35.003906 -23.96875 -38.703125 C -21.1875 -42.410156 -19.785156 -46.441406 -19.765625 -50.796875 C -19.734375 -55.359375 -20.320312 -58.96875 -21.53125 -61.625 C -22.738281 -64.289062 -25.132812 -67.34375 -28.71875 -70.78125 L -18.40625 -91.109375 C -4.21875 -82.515625 2.8125 -68.335938 2.6875 -48.578125 C 2.613281 -36.253906 -1.671875 -25.710938 -10.171875 -16.953125 C -18.679688 -8.191406 -28.882812 -3.847656 -40.78125 -3.921875 C -52.675781 -3.992188 -62.84375 -8.460938 -71.28125 -17.328125 C -79.726562 -26.191406 -83.914062 -36.785156 -83.84375 -49.109375 C -83.757812 -62.078125 -79.945312 -72.601562 -72.40625 -80.6875 C -64.863281 -88.769531 -54.132812 -92.765625 -40.21875 -92.671875 C -38.300781 -92.660156 -37.023438 -92.601562 -36.390625 -92.5 Z M -52.375 -34.109375 L -52.171875 -65.1875 C -56.429688 -64.5625 -59.710938 -62.898438 -62.015625 -60.203125 C -64.316406 -57.515625 -65.476562 -54.046875 -65.5 -49.796875 C -65.53125 -45.128906 -64.332031 -41.40625 -61.90625 -38.625 C -59.476562 -35.84375 -56.300781 -34.335938 -52.375 -34.109375 Z M -52.375 -34.109375 "/></g></g></g><g fill="#000000" fill-opacity="1"><g transform="translate(193.119008, 562.641925)"><g><path d="M 0.0625 -9.5625 L -81.6875 -10.0625 L -81.515625 -38.265625 L -72.90625 -38.21875 L -72.90625 -38.53125 C -80.1875 -45.90625 -83.804688 -53.734375 -83.765625 -62.015625 C -83.734375 -66.054688 -83.171875 -70.066406 -82.078125 -74.046875 C -80.992188 -78.023438 -79.320312 -81.835938 -77.0625 -85.484375 C -74.8125 -89.140625 -71.632812 -92.097656 -67.53125 -94.359375 C -63.425781 -96.617188 -58.664062 -97.726562 -53.25 -97.6875 L 0.609375 -97.359375 L 0.421875 -69.15625 L -45.78125 -69.4375 C -50.03125 -69.46875 -53.753906 -68.140625 -56.953125 -65.453125 C -60.160156 -62.765625 -61.773438 -59.242188 -61.796875 -54.890625 C -61.828125 -50.640625 -60.207031 -46.773438 -56.9375 -43.296875 C -53.664062 -39.828125 -50.007812 -38.078125 -45.96875 -38.046875 L 0.234375 -37.765625 Z M 0.0625 -9.5625 "/></g></g></g><g fill="#7447e1" fill-opacity="1"><g transform="translate(244.22447, 308.43175)"><g><path d="M 35.03125 -72.3125 L 35.03125 0 L 8.46875 0 L 8.46875 -116.53125 L 35.03125 -116.53125 L 81.359375 -44.21875 L 81.640625 -44.21875 L 81.640625 -116.53125 L 108.203125 -116.53125 L 108.203125 0 L 81.640625 0 L 35.3125 -72.3125 Z M 35.03125 -72.3125 "/></g></g></g><g fill="#7447e1" fill-opacity="1"><g transform="translate(360.885734, 308.43175)"><g><path d="M 10.875 -112.859375 C 13.789062 -115.773438 17.273438 -117.234375 21.328125 -117.234375 C 25.378906 -117.234375 28.863281 -115.773438 31.78125 -112.859375 C 34.695312 -109.941406 36.15625 -106.457031 36.15625 -102.40625 C 36.15625 -98.351562 34.695312 -94.867188 31.78125 -91.953125 C 28.863281 -89.035156 25.378906 -87.578125 21.328125 -87.578125 C 17.273438 -87.578125 13.789062 -89.035156 10.875 -91.953125 C 7.957031 -94.867188 6.5 -98.351562 6.5 -102.40625 C 6.5 -106.457031 7.957031 -109.941406 10.875 -112.859375 Z M 8.46875 -72.46875 L 8.46875 0 L 33.46875 0 L 33.46875 -72.46875 Z M 8.46875 -72.46875 "/></g></g></g><g fill="#7447e1" fill-opacity="1"><g transform="translate(403.539125, 308.43175)"><g><path d="M 45.34375 -90.6875 C 41.570312 -92.46875 37.992188 -93.359375 34.609375 -93.359375 C 33.285156 -93.359375 32.082031 -92.816406 31 -91.734375 C 29.914062 -90.660156 29.1875 -89.554688 28.8125 -88.421875 L 28.25 -86.875 L 13.984375 -86.875 C 14.078125 -87.53125 14.238281 -88.398438 14.46875 -89.484375 C 14.707031 -90.566406 15.320312 -92.492188 16.3125 -95.265625 C 17.300781 -98.046875 18.429688 -100.519531 19.703125 -102.6875 C 20.972656 -104.851562 22.804688 -106.804688 25.203125 -108.546875 C 27.609375 -110.285156 30.269531 -111.15625 33.1875 -111.15625 C 34.789062 -111.15625 36.816406 -110.847656 39.265625 -110.234375 C 41.710938 -109.628906 43.785156 -109 45.484375 -108.34375 L 47.890625 -107.34375 C 51.648438 -105.5625 55.226562 -104.671875 58.625 -104.671875 C 59.9375 -104.671875 61.132812 -105.210938 62.21875 -106.296875 C 63.300781 -107.378906 64.03125 -108.484375 64.40625 -109.609375 L 64.96875 -111.15625 L 79.234375 -111.15625 C 79.140625 -110.5 78.972656 -109.628906 78.734375 -108.546875 C 78.503906 -107.460938 77.894531 -105.53125 76.90625 -102.75 C 75.914062 -99.976562 74.785156 -97.507812 73.515625 -95.34375 C 72.242188 -93.175781 70.40625 -91.222656 68 -89.484375 C 65.601562 -87.742188 62.945312 -86.875 60.03125 -86.875 C 58.425781 -86.875 56.398438 -87.175781 53.953125 -87.78125 C 51.503906 -88.394531 49.4375 -89.03125 47.75 -89.6875 Z M 33.46875 0 L 33.46875 -40.96875 C 33.46875 -44.539062 35 -47.785156 38.0625 -50.703125 C 41.125 -53.628906 44.539062 -55.09375 48.3125 -55.09375 C 52.164062 -55.09375 55.289062 -53.675781 57.6875 -50.84375 C 60.09375 -48.019531 61.296875 -44.726562 61.296875 -40.96875 L 61.296875 0 L 86.296875 0 L 86.296875 -47.75 C 86.296875 -52.550781 85.285156 -56.765625 83.265625 -60.390625 C 81.242188 -64.015625 78.609375 -66.8125 75.359375 -68.78125 C 72.109375 -70.757812 68.71875 -72.21875 65.1875 -73.15625 C 61.65625 -74.101562 58.097656 -74.578125 54.515625 -74.578125 C 47.171875 -74.578125 40.253906 -71.328125 33.765625 -64.828125 L 33.46875 -64.828125 L 33.46875 -72.46875 L 8.46875 -72.46875 L 8.46875 0 Z M 33.46875 0 "/></g></g></g><g fill="#7447e1" fill-opacity="1"><g transform="translate(496.896389, 308.43175)"><g><path d="M 13.421875 -8.96875 C 6.640625 -16.363281 3.25 -25.425781 3.25 -36.15625 C 3.25 -46.894531 6.640625 -55.984375 13.421875 -63.421875 C 20.203125 -70.859375 28.816406 -74.578125 39.265625 -74.578125 C 48.867188 -74.578125 56.78125 -71.566406 63 -65.546875 L 63 -72.46875 L 88 -72.46875 L 88 0 L 63.28125 0 L 63.28125 -8.1875 L 63 -8.1875 C 56.78125 -1.3125 48.867188 2.125 39.265625 2.125 C 28.816406 2.125 20.203125 -1.570312 13.421875 -8.96875 Z M 34.671875 -48.4375 C 31.421875 -45.238281 29.796875 -41.144531 29.796875 -36.15625 C 29.796875 -31.164062 31.347656 -27.09375 34.453125 -23.9375 C 37.566406 -20.78125 41.664062 -19.203125 46.75 -19.203125 C 51.644531 -19.203125 55.671875 -20.800781 58.828125 -24 C 61.984375 -27.207031 63.5625 -31.257812 63.5625 -36.15625 C 63.5625 -41.144531 61.9375 -45.238281 58.6875 -48.4375 C 55.4375 -51.644531 51.457031 -53.25 46.75 -53.25 C 41.945312 -53.25 37.921875 -51.644531 34.671875 -48.4375 Z M 34.671875 -48.4375 "/></g></g></g><g fill="#7447e1" fill-opacity="1"><g transform="translate(593.360857, 308.43175)"><g><path d="M 39.96875 -74.578125 C 44.113281 -74.578125 48.210938 -74.101562 52.265625 -73.15625 C 56.316406 -72.21875 59.328125 -71.28125 61.296875 -70.34375 L 64.265625 -68.9375 L 56.078125 -52.546875 C 50.421875 -55.554688 45.050781 -57.0625 39.96875 -57.0625 C 37.144531 -57.0625 35.144531 -56.753906 33.96875 -56.140625 C 32.789062 -55.535156 32.203125 -54.382812 32.203125 -52.6875 C 32.203125 -52.3125 32.25 -51.929688 32.34375 -51.546875 C 32.4375 -51.171875 32.625 -50.816406 32.90625 -50.484375 C 33.1875 -50.160156 33.445312 -49.878906 33.6875 -49.640625 C 33.925781 -49.410156 34.328125 -49.15625 34.890625 -48.875 C 35.453125 -48.59375 35.894531 -48.378906 36.21875 -48.234375 C 36.550781 -48.097656 37.09375 -47.882812 37.84375 -47.59375 C 38.601562 -47.3125 39.171875 -47.097656 39.546875 -46.953125 C 39.921875 -46.816406 40.554688 -46.609375 41.453125 -46.328125 C 42.347656 -46.046875 43.03125 -45.859375 43.5 -45.765625 C 46.425781 -44.921875 48.96875 -43.976562 51.125 -42.9375 C 53.289062 -41.90625 55.570312 -40.492188 57.96875 -38.703125 C 60.375 -36.910156 62.238281 -34.648438 63.5625 -31.921875 C 64.882812 -29.191406 65.546875 -26.082031 65.546875 -22.59375 C 65.546875 -6.113281 54.101562 2.125 31.21875 2.125 C 26.039062 2.125 21.117188 1.320312 16.453125 -0.28125 C 11.796875 -1.882812 8.429688 -3.484375 6.359375 -5.078125 L 3.25 -7.625 L 13.421875 -24.71875 C 14.171875 -24.0625 15.15625 -23.285156 16.375 -22.390625 C 17.601562 -21.492188 19.816406 -20.269531 23.015625 -18.71875 C 26.222656 -17.164062 29.003906 -16.390625 31.359375 -16.390625 C 36.535156 -16.390625 39.125 -18.128906 39.125 -21.609375 C 39.125 -23.210938 38.460938 -24.460938 37.140625 -25.359375 C 35.828125 -26.253906 33.59375 -27.265625 30.4375 -28.390625 C 27.28125 -29.523438 24.8125 -30.5625 23.03125 -31.5 C 18.507812 -33.851562 14.925781 -36.507812 12.28125 -39.46875 C 9.644531 -42.4375 8.328125 -46.375 8.328125 -51.28125 C 8.328125 -58.625 11.175781 -64.34375 16.875 -68.4375 C 22.570312 -72.53125 30.269531 -74.578125 39.96875 -74.578125 Z M 39.96875 -74.578125 "/></g></g></g><g fill="#7447e1" fill-opacity="1"><g transform="translate(662.849158, 308.43175)"><g/></g></g><g fill="#7447e1" fill-opacity="1"><g transform="translate(701.406679, 308.43175)"><g><path d="M 63.421875 -72.46875 L 92.234375 -72.46875 L 35.3125 36.71875 L 6.5 36.71875 L 31.5 -11.296875 L -2.828125 -72.46875 L 25.984375 -72.46875 L 46.1875 -35.3125 Z M 63.421875 -72.46875 "/></g></g></g><g fill="#7447e1" fill-opacity="1"><g transform="translate(790.821513, 308.43175)"><g/></g></g><g fill="#000000" fill-opacity="1"><g transform="translate(244.22447, 471.047862)"><g><path d="M 104.8125 0 L 99.296875 -69.078125 L 98.59375 -69.078125 L 74.71875 -0.703125 L 58.90625 -0.703125 L 35.03125 -69.078125 L 34.328125 -69.078125 L 28.8125 0 L 2.265625 0 L 12.71875 -116.53125 L 40.96875 -116.53125 L 66.8125 -49.296875 L 92.65625 -116.53125 L 120.90625 -116.53125 L 131.359375 0 Z M 104.8125 0 "/></g></g></g><g fill="#000000" fill-opacity="1"><g transform="translate(377.834106, 471.047862)"><g><path d="M 32.0625 -72.46875 L 32.0625 -38 C 32.0625 -30.84375 33.144531 -25.753906 35.3125 -22.734375 C 37.476562 -19.722656 41.148438 -18.21875 46.328125 -18.21875 C 51.503906 -18.21875 55.175781 -19.722656 57.34375 -22.734375 C 59.507812 -25.753906 60.59375 -30.84375 60.59375 -38 L 60.59375 -72.46875 L 85.59375 -72.46875 L 85.59375 -31.921875 C 85.59375 -19.867188 82.460938 -11.179688 76.203125 -5.859375 C 69.941406 -0.535156 59.984375 2.125 46.328125 2.125 C 32.671875 2.125 22.710938 -0.535156 16.453125 -5.859375 C 10.191406 -11.179688 7.0625 -19.867188 7.0625 -31.921875 L 7.0625 -72.46875 Z M 32.0625 -72.46875 "/></g></g></g><g fill="#000000" fill-opacity="1"><g transform="translate(470.485184, 471.047862)"><g><path d="M 10.875 -112.859375 C 13.789062 -115.773438 17.273438 -117.234375 21.328125 -117.234375 C 25.378906 -117.234375 28.863281 -115.773438 31.78125 -112.859375 C 34.695312 -109.941406 36.15625 -106.457031 36.15625 -102.40625 C 36.15625 -98.351562 34.695312 -94.867188 31.78125 -91.953125 C 28.863281 -89.035156 25.378906 -87.578125 21.328125 -87.578125 C 17.273438 -87.578125 13.789062 -89.035156 10.875 -91.953125 C 7.957031 -94.867188 6.5 -98.351562 6.5 -102.40625 C 6.5 -106.457031 7.957031 -109.941406 10.875 -112.859375 Z M 8.46875 -72.46875 L 8.46875 6.359375 C 8.46875 12.953125 6.160156 16.25 1.546875 16.25 C 0.609375 16.25 -0.375 16.082031 -1.40625 15.75 C -2.445312 15.414062 -3.296875 15.0625 -3.953125 14.6875 L -4.796875 14.125 L -12.578125 34.328125 C -12.378906 34.421875 -11.765625 34.703125 -10.734375 35.171875 C -9.703125 35.640625 -8.925781 35.988281 -8.40625 36.21875 C -7.882812 36.457031 -7.007812 36.765625 -5.78125 37.140625 C -4.5625 37.523438 -3.382812 37.8125 -2.25 38 C -1.125 38.1875 0.28125 38.375 1.96875 38.5625 C 3.664062 38.75 5.457031 38.84375 7.34375 38.84375 C 12.050781 38.84375 16.191406 38.019531 19.765625 36.375 C 23.347656 34.726562 26.082031 32.515625 27.96875 29.734375 C 29.851562 26.953125 31.238281 24.03125 32.125 20.96875 C 33.019531 17.914062 33.46875 14.644531 33.46875 11.15625 L 33.46875 -72.46875 Z M 8.46875 -72.46875 "/></g></g></g><g fill="#000000" fill-opacity="1"><g transform="translate(512.43239, 471.047862)"><g><path d="M 81.78125 -32.765625 L 29.234375 -32.765625 C 29.234375 -27.679688 30.878906 -23.914062 34.171875 -21.46875 C 37.472656 -19.019531 41.054688 -17.796875 44.921875 -17.796875 C 48.960938 -17.796875 52.160156 -18.335938 54.515625 -19.421875 C 56.867188 -20.503906 59.554688 -22.644531 62.578125 -25.84375 L 80.65625 -16.8125 C 73.125 -4.1875 60.597656 2.125 43.078125 2.125 C 32.160156 2.125 22.789062 -1.617188 14.96875 -9.109375 C 7.15625 -16.597656 3.25 -25.613281 3.25 -36.15625 C 3.25 -46.707031 7.15625 -55.75 14.96875 -63.28125 C 22.789062 -70.8125 32.160156 -74.578125 43.078125 -74.578125 C 54.566406 -74.578125 63.910156 -71.253906 71.109375 -64.609375 C 78.316406 -57.972656 81.921875 -48.488281 81.921875 -36.15625 C 81.921875 -34.46875 81.875 -33.335938 81.78125 -32.765625 Z M 29.9375 -46.609375 L 57.484375 -46.609375 C 56.921875 -50.378906 55.4375 -53.273438 53.03125 -55.296875 C 50.632812 -57.328125 47.550781 -58.34375 43.78125 -58.34375 C 39.644531 -58.34375 36.351562 -57.257812 33.90625 -55.09375 C 31.457031 -52.925781 30.132812 -50.097656 29.9375 -46.609375 Z M 29.9375 -46.609375 "/></g></g></g><g fill="#000000" fill-opacity="1"><g transform="translate(597.597968, 471.047862)"><g><path d="M 8.46875 0 L 8.46875 -72.46875 L 33.46875 -72.46875 L 33.46875 -62.015625 L 33.765625 -62.015625 C 33.953125 -62.390625 34.253906 -62.859375 34.671875 -63.421875 C 35.097656 -63.984375 36.015625 -64.96875 37.421875 -66.375 C 38.835938 -67.789062 40.347656 -69.0625 41.953125 -70.1875 C 43.554688 -71.320312 45.628906 -72.335938 48.171875 -73.234375 C 50.710938 -74.128906 53.300781 -74.578125 55.9375 -74.578125 C 58.664062 -74.578125 61.347656 -74.195312 63.984375 -73.4375 C 66.617188 -72.6875 68.550781 -71.9375 69.78125 -71.1875 L 71.75 -70.0625 L 61.296875 -48.875 C 58.191406 -51.507812 53.863281 -52.828125 48.3125 -52.828125 C 45.289062 -52.828125 42.695312 -52.164062 40.53125 -50.84375 C 38.375 -49.53125 36.847656 -47.929688 35.953125 -46.046875 C 35.054688 -44.160156 34.414062 -42.554688 34.03125 -41.234375 C 33.65625 -39.921875 33.46875 -38.890625 33.46875 -38.140625 L 33.46875 0 Z M 8.46875 0 "/></g></g></g><g fill="#000000" fill-opacity="1"><g transform="translate(667.933676, 471.047862)"><g><path d="M 81.78125 -32.765625 L 29.234375 -32.765625 C 29.234375 -27.679688 30.878906 -23.914062 34.171875 -21.46875 C 37.472656 -19.019531 41.054688 -17.796875 44.921875 -17.796875 C 48.960938 -17.796875 52.160156 -18.335938 54.515625 -19.421875 C 56.867188 -20.503906 59.554688 -22.644531 62.578125 -25.84375 L 80.65625 -16.8125 C 73.125 -4.1875 60.597656 2.125 43.078125 2.125 C 32.160156 2.125 22.789062 -1.617188 14.96875 -9.109375 C 7.15625 -16.597656 3.25 -25.613281 3.25 -36.15625 C 3.25 -46.707031 7.15625 -55.75 14.96875 -63.28125 C 22.789062 -70.8125 32.160156 -74.578125 43.078125 -74.578125 C 54.566406 -74.578125 63.910156 -71.253906 71.109375 -64.609375 C 78.316406 -57.972656 81.921875 -48.488281 81.921875 -36.15625 C 81.921875 -34.46875 81.875 -33.335938 81.78125 -32.765625 Z M 29.9375 -46.609375 L 57.484375 -46.609375 C 56.921875 -50.378906 55.4375 -53.273438 53.03125 -55.296875 C 50.632812 -57.328125 47.550781 -58.34375 43.78125 -58.34375 C 39.644531 -58.34375 36.351562 -57.257812 33.90625 -55.09375 C 31.457031 -52.925781 30.132812 -50.097656 29.9375 -46.609375 Z M 29.9375 -46.609375 "/></g></g></g><g fill="#000000" fill-opacity="1"><g transform="translate(753.099235, 471.047862)"><g><path d="M 39.96875 -74.578125 C 44.113281 -74.578125 48.210938 -74.101562 52.265625 -73.15625 C 56.316406 -72.21875 59.328125 -71.28125 61.296875 -70.34375 L 64.265625 -68.9375 L 56.078125 -52.546875 C 50.421875 -55.554688 45.050781 -57.0625 39.96875 -57.0625 C 37.144531 -57.0625 35.144531 -56.753906 33.96875 -56.140625 C 32.789062 -55.535156 32.203125 -54.382812 32.203125 -52.6875 C 32.203125 -52.3125 32.25 -51.929688 32.34375 -51.546875 C 32.4375 -51.171875 32.625 -50.816406 32.90625 -50.484375 C 33.1875 -50.160156 33.445312 -49.878906 33.6875 -49.640625 C 33.925781 -49.410156 34.328125 -49.15625 34.890625 -48.875 C 35.453125 -48.59375 35.894531 -48.378906 36.21875 -48.234375 C 36.550781 -48.097656 37.09375 -47.882812 37.84375 -47.59375 C 38.601562 -47.3125 39.171875 -47.097656 39.546875 -46.953125 C 39.921875 -46.816406 40.554688 -46.609375 41.453125 -46.328125 C 42.347656 -46.046875 43.03125 -45.859375 43.5 -45.765625 C 46.425781 -44.921875 48.96875 -43.976562 51.125 -42.9375 C 53.289062 -41.90625 55.570312 -40.492188 57.96875 -38.703125 C 60.375 -36.910156 62.238281 -34.648438 63.5625 -31.921875 C 64.882812 -29.191406 65.546875 -26.082031 65.546875 -22.59375 C 65.546875 -6.113281 54.101562 2.125 31.21875 2.125 C 26.039062 2.125 21.117188 1.320312 16.453125 -0.28125 C 11.796875 -1.882812 8.429688 -3.484375 6.359375 -5.078125 L 3.25 -7.625 L 13.421875 -24.71875 C 14.171875 -24.0625 15.15625 -23.285156 16.375 -22.390625 C 17.601562 -21.492188 19.816406 -20.269531 23.015625 -18.71875 C 26.222656 -17.164062 29.003906 -16.390625 31.359375 -16.390625 C 36.535156 -16.390625 39.125 -18.128906 39.125 -21.609375 C 39.125 -23.210938 38.460938 -24.460938 37.140625 -25.359375 C 35.828125 -26.253906 33.59375 -27.265625 30.4375 -28.390625 C 27.28125 -29.523438 24.8125 -30.5625 23.03125 -31.5 C 18.507812 -33.851562 14.925781 -36.507812 12.28125 -39.46875 C 9.644531 -42.4375 8.328125 -46.375 8.328125 -51.28125 C 8.328125 -58.625 11.175781 -64.34375 16.875 -68.4375 C 22.570312 -72.53125 30.269531 -74.578125 39.96875 -74.578125 Z M 39.96875 -74.578125 "/></g></g></g><g fill="#7447e1" fill-opacity="1"><g transform="translate(249.99778, 659.78142)"><g><path d="M -3.078125 -105.125 L -4.171875 -131.40625 L 88.171875 -135.25 L 89.265625 -108.96875 L 58.0625 -107.671875 L 62.421875 -2.59375 L 32.484375 -1.34375 L 28.125 -106.421875 Z M -3.078125 -105.125 "/></g></g></g><g fill="#7447e1" fill-opacity="1"><g transform="translate(343.928288, 655.886244)"><g><path d="M 82.375 -133 L 82.859375 -106.703125 L 37.609375 -105.875 L 38.078125 -79.75 L 81.40625 -80.53125 L 81.890625 -54.234375 L 38.5625 -53.453125 L 39.03125 -27.015625 L 84.28125 -27.84375 L 84.765625 -1.546875 L 9.5625 -0.171875 L 7.171875 -131.625 Z M 82.375 -133 "/></g></g></g><g fill="#7447e1" fill-opacity="1"><g transform="translate(435.246919, 654.02786)"><g><path d="M 79.734375 -26.4375 C 84.304688 -26.40625 88.75 -27.0625 93.0625 -28.40625 C 97.375 -29.75 100.546875 -31.046875 102.578125 -32.296875 L 105.625 -34.359375 L 118.15625 -8.75 C 117.738281 -8.4375 117.15625 -8.019531 116.40625 -7.5 C 115.65625 -6.976562 113.921875 -6.007812 111.203125 -4.59375 C 108.484375 -3.175781 105.578125 -1.945312 102.484375 -0.90625 C 99.390625 0.125 95.34375 1.039062 90.34375 1.84375 C 85.34375 2.65625 80.191406 3.039062 74.890625 3 C 62.671875 2.90625 51.113281 -0.1875 40.21875 -6.28125 C 29.320312 -12.382812 20.570312 -20.71875 13.96875 -31.28125 C 7.363281 -41.851562 4.109375 -53.25 4.203125 -65.46875 C 4.285156 -74.707031 6.320312 -83.5625 10.3125 -92.03125 C 14.3125 -100.5 19.601562 -107.734375 26.1875 -113.734375 C 32.78125 -119.742188 40.441406 -124.515625 49.171875 -128.046875 C 57.910156 -131.585938 66.851562 -133.320312 76 -133.25 C 84.488281 -133.175781 92.3125 -132.101562 99.46875 -130.03125 C 106.625 -127.957031 111.679688 -125.894531 114.640625 -123.84375 L 119.078125 -120.78125 L 106.125 -95.390625 C 105.382812 -96.023438 104.273438 -96.800781 102.796875 -97.71875 C 101.316406 -98.644531 98.351562 -99.867188 93.90625 -101.390625 C 89.457031 -102.910156 84.945312 -103.6875 80.375 -103.71875 C 73.15625 -103.78125 66.664062 -102.664062 60.90625 -100.375 C 55.144531 -98.09375 50.578125 -95.050781 47.203125 -91.25 C 43.828125 -87.445312 41.242188 -83.347656 39.453125 -78.953125 C 37.660156 -74.566406 36.75 -70.085938 36.71875 -65.515625 C 36.632812 -55.523438 40.300781 -46.539062 47.71875 -38.5625 C 55.144531 -30.59375 65.816406 -26.550781 79.734375 -26.4375 Z M 79.734375 -26.4375 "/></g></g></g><g fill="#7447e1" fill-opacity="1"><g transform="translate(553.999287, 654.971921)"><g><path d="M 41.5 -51.203125 L 39.484375 1.515625 L 9.5625 0.359375 L 14.578125 -131.015625 L 44.5 -129.859375 L 42.5 -77.46875 L 84.859375 -75.859375 L 86.859375 -128.25 L 116.8125 -127.109375 L 111.796875 4.265625 L 81.84375 3.125 L 83.859375 -49.59375 Z M 41.5 -51.203125 "/></g></g></g></svg>